<?xml version="1.0" encoding="UTF-8"?>
<svg id="Layer_1" data-name="Layer 1" xmlns="http://www.w3.org/2000/svg" viewBox="0 0 1080 1080">
  <defs>
    <style>
      .cls-1 {
        fill: #17a356;
      }

      .cls-1, .cls-2 {
        stroke-width: 0px;
      }

      .cls-2 {
        fill: #204b80;
      }
    </style>
  </defs>
  <g>
    <path class="cls-1" d="M346.64,620.59l-.09,2.05-30.63-1c-1.41-.04-2.95-.1-4.59-.18-2.51-5.03-7.69-8.5-13.69-8.5-5.55,0-10.4,2.97-13.07,7.43-3.52-.15-7.11-.29-10.74-.44-1.61-6.65-7.63-11.62-14.79-11.62-6.71,0-12.43,4.35-14.45,10.39-8.59-.37-16.27-.69-22.02-.92-7.18-35.23-16.87-87.58-23.84-123.69-6.95-.72-13.86-1.55-20.79-2.33l-21.95-2.49.21-2.05c16.84-3.43,34.1-4.81,51.2-5.79,4.75,12.84,9.54,26.13,13.41,39.15,6.9,22.48,12.38,45.62,16.97,68.67.56,3.09,1.2,6.48,1.83,9.92,5.32.51,10.64,1.11,15.94,1.79,30.87,3.96,61.52,9.3,91.09,19.61Z"/>
    <polygon class="cls-2" points="258.53 584.23 257.36 566.68 360.4 559.81 364.49 536.92 242.21 548.3 231.21 497.69 369.59 478.82 371.96 496.24 252.44 512.54 256.09 529.34 385.86 517.27 375.29 576.44 258.53 584.23"/>
    <path class="cls-2" d="M270.77,619.82c-1.58-4.97-6.23-8.56-11.71-8.56-5.11,0-9.51,3.14-11.37,7.59-.6,1.45-.94,3.03-.94,4.7,0,6.78,5.52,12.31,12.31,12.31s12.29-5.52,12.29-12.31c0-1.3-.21-2.56-.59-3.74ZM259.06,630.01c-3.56,0-6.45-2.89-6.45-6.45,0-1.71.67-3.28,1.79-4.43,1.16-1.25,2.83-2.01,4.66-2.01,2.02,0,3.84.94,5.03,2.42.88,1.1,1.41,2.49,1.41,4.02,0,3.56-2.89,6.45-6.43,6.45Z"/>
    <path class="cls-2" d="M307.88,621.35c-2.21-3.28-5.98-5.45-10.23-5.45-3.9,0-7.37,1.82-9.61,4.65-1.69,2.1-2.68,4.76-2.68,7.65,0,6.78,5.51,12.31,12.29,12.31s12.31-5.52,12.31-12.31c0-2.52-.76-4.88-2.08-6.84ZM297.65,634.64c-3.55,0-6.43-2.89-6.43-6.45s2.89-6.43,6.43-6.43,6.45,2.89,6.45,6.43-2.89,6.45-6.45,6.45Z"/>
    <path class="cls-1" d="M336.42,470.12c-4.17,1.03-8.47,2.1-12.83,3.17l-.4-2.33c-2.05-11.94-13.43-20.01-25.37-17.96-11.94,2.05-20.01,13.43-17.97,25.37l.95,5.54c-2.93.73-5.58,1.41-7.89,2l-4.93,1.27-1.13-6.58c-3.26-19.11,9.63-37.33,28.74-40.59,19.12-3.28,37.33,9.61,40.59,28.73l.23,1.38Z"/>
  </g>
  <path class="cls-2" d="M448.25,592.7c-7.1,0-13.14-.95-18.12-2.83-4.98-1.89-8.71-3.9-11.2-6.02v-19.09c3.23,1.84,7.54,3.78,12.93,5.81,5.39,2.03,11.36,3.04,17.91,3.04,4.24,0,7.4-.83,9.47-2.49,2.07-1.66,3.11-3.92,3.11-6.78,0-2.58-.83-4.7-2.49-6.36-1.66-1.66-4.15-3.18-7.47-4.56-3.32-1.38-7.56-2.99-12.72-4.84-7.38-2.67-13.09-6.13-17.15-10.37-4.06-4.24-6.09-9.96-6.09-17.15,0-5.07,1.13-9.82,3.39-14.24,2.26-4.43,5.81-8,10.65-10.72,4.84-2.72,11.04-4.08,18.6-4.08,2.95,0,5.88.12,8.78.35,2.9.23,5.37.53,7.4.9l15.63,11.48-6.92,14.11-25.31-8.99c-3.32,0-6.06.81-8.23,2.42-2.17,1.61-3.25,3.9-3.25,6.85,0,3.69,1.54,6.5,4.63,8.44,3.09,1.94,7.44,3.83,13.07,5.67,10.69,3.5,18.21,7.72,22.54,12.65,4.33,4.93,6.5,10.72,6.5,17.36,0,5.35-1.11,10.26-3.32,14.73-2.21,4.47-5.93,8.05-11.13,10.72-5.21,2.67-12.29,4.01-21.23,4.01Z"/>
  <path class="cls-2" d="M532.48,592.7c-9.5,0-16.94-1.57-22.34-4.7-5.39-3.13-9.22-7.77-11.48-13.9-2.26-6.13-3.39-13.62-3.39-22.47v-35.96l.14-13.97-.14-8.3h19.64v59.61c0,6.45,1.29,11.69,3.87,15.7,2.58,4.01,7.14,6.02,13.69,6.02s11.18-1.87,13.9-5.6c2.72-3.74,4.08-9.1,4.08-16.11v-59.61h19.22v58.23c0,8.67-1.09,16.07-3.25,22.2-2.17,6.13-5.95,10.81-11.34,14.04-5.39,3.23-12.93,4.84-22.61,4.84Z"/>
  <path class="cls-2" d="M620.71,592.7c-9.5,0-16.94-1.57-22.34-4.7-5.39-3.13-9.22-7.77-11.48-13.9-2.26-6.13-3.39-13.62-3.39-22.47v-35.96l.14-13.97-.14-8.3h19.64v59.61c0,6.45,1.29,11.69,3.87,15.7,2.58,4.01,7.14,6.02,13.69,6.02s11.18-1.87,13.9-5.6c2.72-3.74,4.08-9.1,4.08-16.11v-59.61h19.22v58.23c0,8.67-1.09,16.07-3.25,22.2-2.17,6.13-5.95,10.81-11.34,14.04-5.39,3.23-12.93,4.84-22.61,4.84Z"/>
  <path class="cls-1" d="M763.99,597.12l-9.68,15.49c-4.33-1.94-8.18-3.64-11.54-5.12-2.59-1.13-5.3-2.31-8.04-3.5,5.73-4.29,11.52-8.54,17.7-12.39l11.56,5.51Z"/>
  <path class="cls-2" d="M743.1,574.58c2.96-3.22,5.35-7.39,7.19-12.51,1.86-5.12,2.77-11.64,2.77-19.58,0-10.14-1.13-18.47-3.38-25.03-2.27-6.54-5.33-11.66-9.21-15.35-3.87-3.67-8.28-6.26-13.2-7.74-4.94-1.46-10.12-2.21-15.57-2.21-5.16,0-10.21.71-15.13,2.15-4.94,1.42-9.38,3.99-13.36,7.67-3.95,3.69-7.09,8.81-9.4,15.35-2.29,6.56-3.46,14.94-3.46,25.17,0,7.57.75,13.89,2.21,18.95,1.48,5.08,3.52,9.23,6.09,12.45l2.77,17.43h11.2c5.26,0,9.52.38,12.8,1.11,3.26.75,6.56,1.8,9.88,3.18,1.48.65,3.75,1.64,6.86,2.98,1.98.85,4.07,1.76,6.28,2.71l2.73-2.04c4.29-3.22,9.17-6.82,14.34-10.23l-15.83-4.48-.28-.69c2.13-.83,4.54-2.13,7.27-3.93,2.71-1.8,4.86-3.58,6.42-5.33ZM730.32,558.26c-1.44,4.7-3.69,8.42-6.78,11.14-3.1,2.71-7.07,4.07-11.97,4.07h-10.93c-1.46-1.01-2.94-3.16-4.43-6.42-1.46-3.28-2.69-7.11-3.66-11.48-.97-4.39-1.46-8.73-1.46-13.08,0-9.58,1.76-17.15,5.26-22.68,3.52-5.53,8.63-8.3,15.35-8.3s11.99,2.73,15.49,8.16c3.52,5.45,5.26,13.06,5.26,22.82,0,5.81-.71,11.06-2.13,15.77Z"/>
  <path class="cls-2" d="M787.64,591.32v-41.49l-31.39-48.13v-8.3h23.24l16.6,35.41h2.77l16.46-35.41h23.51v8.3l-32.5,48.96.83,13.97v26.69h-19.5Z"/>
  <path class="cls-1" d="M903.29,547.15c.06-1.54.1-3.14.1-4.8,0-6.54-.53-12.11-1.58-16.73-1.07-4.6-3.06-8.14-6.03-10.57-2.94-2.45-7.33-3.67-13.14-3.67-.87,0-1.72.04-2.55.1,1.6-6.2,2.35-12.8,3.1-19.44,5.24.06,10.25.77,15.02,2.19,4.92,1.48,9.33,4.07,13.2,7.74,3.87,3.69,6.93,8.81,9.21,15.35,2.21,6.44,3.34,14.6,3.38,24.5-6.74,1.88-13.71,3.2-20.71,5.33Z"/>
  <path class="cls-2" d="M923.86,547.98c-.34,7.65-1.42,14.13-3.24,19.4-2.27,6.56-5.33,11.68-9.21,15.35-3.87,3.69-8.28,6.28-13.2,7.74-4.94,1.48-10.12,2.21-15.57,2.21-5.16,0-10.21-.71-15.13-2.13-4.94-1.44-9.38-3.99-13.36-7.69-3.95-3.67-7.09-8.79-9.4-15.35-2.29-6.54-3.46-14.94-3.46-25.17s1.17-18.61,3.46-25.17c2.31-6.54,5.45-11.66,9.4-15.35,3.97-3.67,8.42-6.24,13.36-7.67,3.16-.93,6.4-1.56,9.68-1.88-.67,6.01-1.4,12.15-2.83,17.7l-.73,2.83c-1.56.57-2.9,1.34-4.05,2.29-3,2.49-5,6.05-6.03,10.65-1.01,4.62-1.52,10.16-1.52,16.6s.51,11.87,1.52,16.54c1.03,4.64,3.02,8.22,6.03,10.71,2.98,2.49,7.35,3.73,13.06,3.73s10.19-1.22,13.14-3.66c2.96-2.45,4.96-6.01,6.03-10.65.4-1.72.71-3.56.95-5.51l2.27-.69c3.79-1.17,7.73-2.09,11.52-3,2.39-.57,4.86-1.19,7.31-1.84Z"/>
</svg>